Coordinates
version=1
nRows=19
nColumns=36
inDegrees=yes

Units are S.I. units (second, meters, Newtons, ...)
If the header above contains a line with 'inDegrees', this indicates whether rotational values are in degrees (yes) or radians (no).

endheader
time	pelvis_tilt	pelvis_list	pelvis_rotation	pelvis_tx	pelvis_ty	pelvis_tz	hip_flexion_r	hip_adduction_r	hip_rotation_r	knee_angle_r	knee_angle_r_beta	ankle_angle_r	subtalar_angle_r	mtp_angle_r	hip_flexion_l	hip_adduction_l	hip_rotation_l	knee_angle_l	knee_angle_l_beta	ankle_angle_l	subtalar_angle_l	mtp_angle_l	lumbar_extension	lumbar_bending	lumbar_rotation	arm_flex_r	arm_add_r	arm_rot_r	elbow_flex_r	pro_sup_r	arm_flex_l	arm_add_l	arm_rot_l	elbow_flex_l	pro_sup_l
     29.75000000	     -7.14625401	     -3.96874922	      2.01905504	      0.96217110	      0.79002696	      0.70003662	     31.22445383	      3.58070521	     -1.59689780	     13.33839105	      0.23279884	      1.30386010	     -9.24484485	     -7.49999987	     -5.22943511	     -4.04886547	      1.84164410	     27.03652129	      0.47187631	     13.81147526	     -0.23089800	     -7.49999987	      8.01929734	      6.12889742	    -11.19802455	     -2.19067911	    -14.76239364	     -6.78335659	      6.34460567	    103.65940211	     11.06107232	    -12.35979023	      5.82227781	     21.40533721	     95.78859736
     29.76666670	     -6.55752051	     -4.77699304	      1.74448261	      0.96741861	      0.79183676	      0.70308666	     30.11545641	      4.89634660	     -1.39681358	     15.28892755	      0.26684212	      1.60994843	     -9.61213787	     -7.49999987	     -4.45793394	     -5.45950003	      0.90691823	     31.74487917	      0.55405266	      8.64285934	      0.13957864	     -7.49999987	      7.50835248	      7.08260894	    -10.73547280	     -1.84278261	    -15.08918856	     -6.74415027	      6.75019836	    103.53894811	     10.34115695	    -11.87725821	      5.85431178	     21.06825886	     95.76859713
     29.78333330	     -6.06538382	     -5.78262067	      1.59503492	      0.97407169	      0.79428554	      0.70797577	     28.88185814	      6.38650249	     -1.33495990	     16.85584965	      0.29419007	      2.37205673	    -10.16186146	     -7.49999987	     -2.93528045	     -7.07621543	      0.51916785	     37.24911588	      0.65011972	      2.70754838	     -0.60893077	     -7.49999987	      7.21213940	      8.28009151	    -10.24491791	     -1.67569055	    -15.56630557	     -6.38021506	      7.24179536	    103.45453442	      9.68326693	    -11.18048743	      5.77548860	     19.89404855	     95.81877525
     29.80000000	     -5.85278064	     -6.61582396	      1.55961585	      0.97932238	      0.79772262	      0.71354096	     27.67259243	      7.66684141	     -1.48766530	     17.95191369	      0.31332000	      3.67012139	    -10.12971018	     -7.49999987	     -0.64400507	     -8.64710529	      0.12907469	     42.92401381	      0.74916537	     -3.14929768	     -0.80867157	     -7.49999987	      7.49343217	      9.00501294	     -9.37350150	     -2.12858757	    -15.95742978	     -4.41541113	      7.90916550	    103.65850284	      9.43695083	    -10.35946953	      5.68571953	     17.12621924	     96.50803113
     29.81666670	     -5.62768782	     -7.28079888	      1.72252758	      0.98154115	      0.80209248	      0.71783918	     26.18519386	      8.70036441	     -1.69412881	     18.50169703	      0.32291553	      4.96791855	    -10.07363050	     -7.49999987	      2.02009015	     -9.95866594	      0.08532844	     48.40014976	      0.84474197	     -7.57923673	     -1.10408051	     -7.49999987	      7.65628687	      9.47597598	     -8.89000214	     -2.49514160	    -16.12496138	     -3.12327219	      8.66738043	    103.35683066	      8.60657655	     -9.96186730	      5.93595599	     15.48268971	     96.97056667
     29.83333330	     -5.46482626	     -7.70719367	      2.04117321	      0.98282573	      0.80597821	      0.72113295	     24.55484797	      9.40712973	     -1.92610629	     18.61363027	      0.32486913	      6.11754736	    -10.16029565	     -7.49999987	      4.98665696	    -10.83363265	      0.29498963	     53.40414130	      0.93207810	    -10.30184236	     -1.71841881	     -7.49999987	      7.86397474	      9.65316308	     -8.58302764	     -2.75025712	    -16.13842638	     -2.31690862	      9.36466889	    102.95702993	      7.64577891	     -9.70719242	      6.18907552	     14.00695068	     97.20381071
     29.85000000	     -5.25089891	     -7.95465501	      2.49029576	      0.98410585	      0.80908057	      0.72375884	     22.64125195	      9.90219437	     -2.03521075	     18.30609132	      0.31950157	      7.03320164	    -10.28594078	     -7.49999987	      7.99157586	    -11.24377052	      0.81721401	     57.78442649	      1.00852850	    -11.50532670	     -2.70101290	     -7.49999987	      8.00039909	      9.63476271	     -8.28959082	     -2.92706107	    -16.01307573	     -1.79651010	      9.87106265	    102.62141671	      6.68024497	     -9.51528499	      6.40039187	     12.85808805	     97.31903155
     29.86666670	     -5.00841306	     -7.90373367	      2.87971078	      0.98305819	      0.81254783	      0.72551091	     20.54629359	     10.13292703	     -1.84620643	     17.69623685	      0.30885760	      8.00881895	    -10.47372077	     -7.49999987	     10.93162995	    -11.10434955	      1.25641440	     61.37914874	      1.07126824	    -11.27057630	     -4.00000438	     -7.49999987	      7.86744479	      9.39744376	     -7.85723454	     -2.81459373	    -15.82263771	     -1.47534583	     10.29308732	    102.34639267	      5.79652400	     -9.43675981	      6.56726438	     12.06340383	     97.35293013
     29.88333330	     -4.87432915	     -7.59643183	      3.22200167	      0.97922265	      0.81750425	      0.72704048	     18.35421717	     10.09857536	     -1.47860314	     16.56559038	      0.28912409	      8.81635724	    -10.51566973	     -7.49999987	     13.86678494	    -10.43958522	      1.59331689	     63.99631432	      1.11694639	     -9.72416018	     -5.58203949	     -7.49999987	      7.77762564	      8.93760980	     -7.41321434	     -2.42415154	    -15.54818663	     -1.13006663	     10.79584480	    101.98217485	      5.04312770	     -9.49328181	      6.83217800	     11.28433930	     97.38694320
     29.90000000	     -4.79553021	     -6.95537546	      3.32665995	      0.97411905	      0.82224849	      0.72985146	     16.18721400	      9.75647696	     -0.88562452	     15.24313736	      0.26604294	      9.56349620	    -10.38518016	     -7.49999987	     16.61787755	     -9.34059858	      1.44470275	     65.43970234	      1.14213827	     -7.04005293	     -7.30405878	     -7.49999987	      7.44291236	      8.14585248	     -6.58781450	     -1.76102349	    -15.17164697	     -0.99681004	     11.34723732	    101.70977169	      4.33731925	     -9.70950003	      6.94730149	     11.06999401	     97.30525419
     29.91666670	     -4.71019946	     -6.32519357	      3.31516279	      0.96835327	      0.82487060	      0.73349140	     13.97207437	      9.39625794	     -0.51785587	     13.68368303	      0.23882532	      9.92220185	    -10.11065244	     -7.49999987	     19.28099233	     -8.26129542	      1.03312036	     65.95565769	      1.15114339	     -3.69366296	     -9.00236794	     -7.49999987	      7.03459631	      7.45731632	     -5.76585789	     -0.86622583	    -14.87784344	     -0.84470345	     11.83537367	    101.41419443	      3.78268140	     -9.86207966	      7.15370842	     10.67052751	     97.30781485
     29.93333330	     -4.38947170	     -5.54682779	      3.02442439	      0.96176819	      0.82554632	      0.73658228	     11.65121371	      8.92496963	      0.05335341	     12.30064375	      0.21468673	     10.33221375	     -9.74511755	     -7.49999987	     21.66935620	     -7.23157031	      0.18943895	     65.63165300	      1.14548844	     -0.29790562	     -9.79023009	     -7.49999987	      5.91679684	      6.61034148	     -4.41614502	      0.31057308	    -14.61355540	     -0.33129936	     12.37701190	    100.62358642	      3.78264810	    -10.04387486	      7.91134471	      9.69913837	     97.49893307
     29.95000000	     -4.45165167	     -4.82936495	      2.59165409	      0.95584491	      0.82535168	      0.73672166	      9.96692408	      8.38985920	      0.21049683	     11.23133946	      0.19602385	     10.93567740	     -8.62457129	     -7.49999987	     24.42354659	     -6.31120382	     -0.71080566	     64.50883291	      1.12589153	      2.02435734	    -10.91934782	     -7.49999987	      5.23229991	      5.86637032	     -3.18706416	      1.29733106	    -14.48513443	     -0.01783444	     13.52149879	     98.52927267	      3.21420359	    -10.22874189	      8.26354422	      9.59665866	     96.02938226
     29.96666670	     -4.24658595	     -4.04957995	      2.23425761	      0.94967235	      0.82556421	      0.73400868	      8.28058882	      7.71235409	      0.50631111	     10.50810566	      0.18340104	     11.31548134	     -8.13453432	     -7.49999987	     26.65579340	     -5.37074923	     -1.57518910	     62.46387689	      1.09020032	      3.70662101	    -11.41115479	     -7.49999987	      4.01743291	      5.03242759	     -1.66951744	      2.47891278	    -14.51110571	      0.52843563	     14.35303112	     96.34641968	      3.23256936	    -10.34596113	      8.79409174	      9.15596071	     94.57506388
     29.98333330	     -4.25063425	     -3.37453434	      1.80501040	      0.94266271	      0.82557065	      0.73134460	      7.10202253	      7.07927717	      0.99765866	     10.19603143	      0.17795432	     11.46835740	     -8.05314647	     -7.49999987	     28.66005697	     -4.61673653	     -2.50554830	     59.51246638	      1.03868848	      4.54730212	    -11.60668646	     -7.49999987	      3.05581660	      4.35497021	     -0.19901576	      3.63671421	    -14.80547903	      1.11924500	     15.76758722	     93.63235251	      3.08977062	    -10.49120209	      9.37642849	      9.27469628	     92.61510652
     30.00000000	     -4.37172169	     -2.78687329	      1.36317592	      0.93593928	      0.82520605	      0.73025624	      6.31465862	      6.45938026	      1.10941888	     10.31656350	      0.18005800	     11.85760910	     -7.55602219	     -7.49999987	     30.30831290	     -3.89782523	     -3.33668829	     55.74053605	      0.97285588	      4.86496521	    -11.53402589	     -7.49999987	      2.20669101	      3.82336144	      1.14104806	      5.02787120	    -15.28749282	      1.66675677	     17.29758018	     91.58648188	      3.03371780	    -10.55513320	      9.99650646	      9.38841541	     91.23094447
     30.01666670	     -4.53671158	     -2.29941312	      0.77345106	      0.93155301	      0.82495788	      0.73036950	      5.69113018	      5.96743527	      1.30288710	     10.59189575	      0.18486345	     12.27187156	     -7.24708731	     -7.49999987	     31.62620647	     -3.33232545	     -4.10336530	     51.54431237	      0.89961796	      5.09394449	    -10.98672601	     -7.49999987	      1.48001980	      3.37046287	      2.68685435	      6.36722764	    -15.86282928	      2.36417161	     19.01933653	     88.74649733	      3.06552627	    -10.56991418	     10.61553024	      9.63652828	     89.05109901
     30.03333330	     -4.76325147	     -1.97625859	      0.01840931	      0.92993819	      0.82472668	      0.73069276	      5.15141943	      5.65956100	      1.63556919	     10.87610173	      0.18982378	     12.74152228	     -7.00594343	     -7.49999987	     32.69959268	     -3.01313834	     -4.74151292	     46.94296509	      0.81930930	      5.45178705	    -10.07532923	     -7.49999987	      0.88025659	      3.13808989	      4.09748119	      7.81556493	    -16.47111937	      2.96101037	     20.61254632	     85.79856353	      2.99970295	    -10.45017576	     11.08302587	      9.85364506	     86.59599885
     30.05000000	     -5.06489583	     -1.81254464	     -0.52584488	      0.93015315	      0.82433261	      0.73071380	      4.59800473	      5.38540230	      0.62194438	     11.17849949	      0.19510162	     14.01762442	     -4.78068064	     -7.49999987	     33.62109009	     -2.72463680	     -4.90452128	     41.90590907	      0.73139609	      5.91817422	     -8.72365691	     -7.49999987	      0.70916671	      3.07269816	      5.27985016	      8.90182074	    -17.41338995	      5.11137989	     22.15774961	     87.54220139	      2.95616180	    -10.32212041	     10.45523115	      9.53936319	     95.62692624
